<?xml version="1.0" standalone="no"?><!DOCTYPE svg PUBLIC "-//W3C//DTD SVG 1.1//EN" "http://www.w3.org/Graphics/SVG/1.1/DTD/svg11.dtd"><svg t="1690276260559" class="icon" viewBox="0 0 1024 1024" version="1.1" xmlns="http://www.w3.org/2000/svg" p-id="9146" width="16" height="16" xmlns:xlink="http://www.w3.org/1999/xlink"><path d="M512 6.741333a505.258667 505.258667 0 1 0 0 1010.517334c279.048533 0 505.258667-226.210133 505.258667-505.258667S791.057067 6.741333 512 6.741333z" fill="#C0C4CC" p-id="9147"></path><path d="M508.765867 183.7824a152.251733 152.251733 0 1 1 0 304.503467c-84.087467 0-152.251733-68.164267-152.251734-152.251734s68.164267-152.251733 152.251734-152.251733zM221.8496 764.544c-1.672533-143.479467 80.443733-232.567467 183.381333-267.5712l105.685334 150.613333L622.250667 500.437333C721.578667 537.617067 800.494933 625.646933 802.090667 764.672c-182.587733 61.824-375.031467 66.286933-580.241067-0.128z" fill="#FFFFFF" p-id="9148"></path></svg>